<?xml version="1.0" encoding="UTF-8" standalone="no"?>
<!-- Created with Inkscape (http://www.inkscape.org/) -->

<svg
   xmlns:svg="http://www.w3.org/2000/svg"
   xmlns="http://www.w3.org/2000/svg"
   version="1.1"
   width="512"
   height="512"
   viewBox="0 0 512 512"
   id="Layer_1"
   xml:space="preserve"><defs
   id="defs78" />

<g
   id="g70">
	<g
   id="g72">
		<path
   d="m 400,64 c -5.312,0 -10.562,0.375 -15.792,1.125 C 354.334,24.417 307.188,0 256,0 204.812,0 157.688,24.417 127.792,65.125 122.562,64.375 117.312,64 112,64 50.25,64 0,114.25 0,176 c 0,61.75 50.25,112 112,112 13.688,0 27.084,-2.5 39.709,-7.333 12.291,10.708 26.25,18.958 40.916,25.416 l 24.916,-24.874 C 194.083,273.583 173.375,259.938 157.937,241.333 144.938,250.5 129.125,256 112,256 67.812,256 32,220.188 32,176 c 0,-44.188 35.812,-80 80,-80 10.812,0 21.062,2.208 30.438,6.083 C 163.667,60.667 206.291,32 256,32 305.709,32 348.334,60.667 369.541,102.083 378.938,98.208 389.209,96 400,96 c 44.188,0 80,35.812 80,80 0,44.188 -35.812,80 -80,80 -17.125,0 -32.916,-5.5 -45.938,-14.667 C 343.687,253.854 330.75,264 316.437,271.917 L 303,312.25 c 20.875,-6.562 40.5,-16.938 57.291,-31.583 C 372.916,285.5 386.312,288 400,288 461.75,288 512,237.75 512,176 512,114.25 461.75,64 400,64 z m -208,288 32,32 -32,96 96,-96 -32,-32 32,-96 -96,96 z"
   id="path74"
   style="opacity:0.8;fill:#ffffff;fill-opacity:1" />
	</g>
</g>
</svg>