<?xml version="1.0" encoding="UTF-8" standalone="no"?>
<!-- Created with Inkscape (http://www.inkscape.org/) -->

<svg
   xmlns:svg="http://www.w3.org/2000/svg"
   xmlns="http://www.w3.org/2000/svg"
   version="1.1"
   width="512"
   height="512"
   viewBox="0 0 512 512"
   id="Layer_1"
   xml:space="preserve"><defs
   id="defs74" />

<path
   d="m 400,160 c -5.312,0 -10.562,0.375 -15.792,1.125 C 354.334,120.417 307.188,96 256,96 204.812,96 157.688,120.417 127.792,161.125 122.562,160.375 117.312,160 112,160 50.25,160 0,210.25 0,272 c 0,61.75 50.25,112 112,112 13.688,0 27.084,-2.5 39.709,-7.333 C 180.666,401.917 217.5,416 256,416 294.542,416 331.333,401.917 360.291,376.667 372.916,381.5 386.312,384 400,384 461.75,384 512,333.75 512,272 512,210.25 461.75,160 400,160 z m 0,192 c -17.125,0 -32.916,-5.5 -45.938,-14.667 C 330.584,365.624 295.624,384 256,384 216.375,384 181.416,365.624 157.938,337.333 144.938,346.5 129.125,352 112,352 67.812,352 32,316.188 32,272 c 0,-44.188 35.812,-80 80,-80 10.812,0 21.062,2.208 30.438,6.083 C 163.667,156.667 206.291,128 256,128 c 49.709,0 92.334,28.667 113.541,70.083 C 378.938,194.208 389.209,192 400,192 c 44.188,0 80,35.812 80,80 0,44.188 -35.812,80 -80,80 z"
   id="path70"
   style="opacity:0.8;fill:#ffffff;fill-opacity:1;fill-rule:evenodd" />
</svg>