<?xml version="1.0" encoding="UTF-8" standalone="no"?>
<!-- Created with Inkscape (http://www.inkscape.org/) -->

<svg
   xmlns:svg="http://www.w3.org/2000/svg"
   xmlns="http://www.w3.org/2000/svg"
   version="1.1"
   width="512"
   height="512"
   viewBox="0 0 512 512"
   id="Layer_1"
   xml:space="preserve"><defs
   id="defs78" />

<g
   id="g70">
	<g
   id="g72">
		<path
   d="m 112,160 h 288 c 8.833,0 16,-7.167 16,-16 0,-8.833 -7.167,-16 -16,-16 H 112 c -8.833,0 -16,7.167 -16,16 0,8.833 7.167,16 16,16 z m 288,32 H 112 c -8.833,0 -16,7.167 -16,16 0,8.833 7.167,16 16,16 h 288 c 8.833,0 16,-7.167 16,-16 0,-8.833 -7.167,-16 -16,-16 z m 0,64 H 112 c -8.833,0 -16,7.167 -16,16 0,8.833 7.167,16 16,16 h 288 c 8.833,0 16,-7.167 16,-16 0,-8.833 -7.167,-16 -16,-16 z m 0,64 H 112 c -8.833,0 -16,7.167 -16,16 0,8.833 7.167,16 16,16 h 288 c 8.833,0 16,-7.167 16,-16 0,-8.833 -7.167,-16 -16,-16 z"
   id="path74"
   style="opacity:0.8;fill:#ffffff;fill-opacity:1" />
	</g>
</g>
</svg>