<?xml version="1.0" encoding="UTF-8" standalone="no"?>
<!-- Created with Inkscape (http://www.inkscape.org/) -->

<svg
   xmlns:svg="http://www.w3.org/2000/svg"
   xmlns="http://www.w3.org/2000/svg"
   version="1.1"
   width="512"
   height="512"
   viewBox="0 0 512 512"
   id="Layer_1"
   xml:space="preserve"><defs
   id="defs78" />

<path
   d="m 431,192 c -26.5,0 -48,21.5 -48,48 0,5.646 1.167,10.958 2.938,16 H 79 c -8.833,0 -16,7.167 -16,16 0,8.833 7.167,16 16,16 h 352 c 26.5,0 48,-21.5 48,-48 0,-26.5 -21.5,-48 -48,-48 z M 79,224 h 192 c 26.5,0 48,-21.5 48,-48 0,-26.5 -21.5,-48 -48,-48 -26.5,0 -48,21.5 -48,48 0,5.646 1.167,10.958 2.938,16 H 79 c -8.833,0 -16,7.167 -16,16 0,8.833 7.167,16 16,16 z m 256,96 c -0.938,0 -1.834,0.208 -2.791,0.291 C 331.584,320.25 331.063,320 330.438,320 H 83.584 C 72.209,320 63,327.167 63,336 c 0,8.833 9.209,16 20.584,16 h 206.354 c -1.771,5.042 -2.938,10.376 -2.938,16 0,26.5 21.5,48 48,48 26.5,0 48,-21.5 48,-48 0,-26.5 -21.5,-48 -48,-48 z"
   id="path74"
   style="opacity:0.8;fill:#ffffff;fill-opacity:1" />
</svg>