<?xml version="1.0" encoding="UTF-8" standalone="no"?>
<!-- Created with Inkscape (http://www.inkscape.org/) -->

<svg
   xmlns:svg="http://www.w3.org/2000/svg"
   xmlns="http://www.w3.org/2000/svg"
   version="1.1"
   width="512"
   height="512"
   viewBox="0 0 512 512"
   id="Layer_1"
   xml:space="preserve"><defs
   id="defs78" />

<g
   id="g70">
	<g
   id="g72">
		<path
   d="m 400,64 c -5.312,0 -10.562,0.375 -15.792,1.125 C 354.334,24.417 307.188,0 256,0 204.812,0 157.688,24.417 127.792,65.125 122.562,64.375 117.312,64 112,64 50.25,64 0,114.25 0,176 c 0,61.75 50.25,112 112,112 13.688,0 27.084,-2.5 39.709,-7.333 C 180.666,305.917 217.5,320 256,320 294.542,320 331.333,305.917 360.291,280.667 372.916,285.5 386.312,288 400,288 461.75,288 512,237.75 512,176 512,114.25 461.75,64 400,64 z m 0,192 c -9.709,0 -19.209,-1.75 -28.25,-5.208 l -18,-6.917 -14.5,12.667 C 316,276.833 286.438,288 256,288 c -30.438,0 -60,-11.167 -83.25,-31.458 l -14.5,-12.667 -18,6.917 C 131.25,254.25 121.709,256 112,256 67.875,256 32,220.104 32,176 c 0,-44.104 35.875,-80 80,-80 3.792,0 7.5,0.271 11.25,0.792 l 18.958,2.75 11.354,-15.458 C 177.875,50.979 215.209,32 256,32 c 40.812,0 78.125,18.958 102.417,52.063 l 11.375,15.479 18.999,-2.75 C 392.5,96.271 396.208,96 400,96 c 44.125,0 80,35.896 80,80 0,44.104 -35.875,80 -80,80 z M 96,320 c -17.688,0 -32,14.312 -32,32 0,17.688 14.312,32 32,32 17.688,0 32,-14.312 32,-32 0,-17.688 -14.312,-32 -32,-32 z m 160,32 c -17.688,0 -32,14.312 -32,32 0,17.688 14.312,32 32,32 17.688,0 32,-14.312 32,-32 0,-17.688 -14.312,-32 -32,-32 z m 160,-32 c -17.688,0 -32,14.312 -32,32 0,17.688 14.312,32 32,32 17.688,0 32,-14.312 32,-32 0,-17.688 -14.312,-32 -32,-32 z m -64,128 c -17.688,0 -32,14.312 -32,32 0,17.688 14.312,32 32,32 17.688,0 32,-14.312 32,-32 0,-17.688 -14.312,-32 -32,-32 z m -192,0 c -17.688,0 -32,14.312 -32,32 0,17.688 14.312,32 32,32 17.688,0 32,-14.312 32,-32 0,-17.688 -14.312,-32 -32,-32 z"
   id="path74"
   style="opacity:0.8;fill:#ffffff;fill-opacity:1" />
	</g>
</g>
</svg>