<?xml version="1.0" encoding="UTF-8" standalone="no"?>
<!-- Created with Inkscape (http://www.inkscape.org/) -->

<svg
   xmlns:svg="http://www.w3.org/2000/svg"
   xmlns="http://www.w3.org/2000/svg"
   version="1.1"
   width="512"
   height="512"
   viewBox="0 0 512 512"
   id="Layer_1"
   xml:space="preserve"><defs
   id="defs74" />

<path
   d="m 382.872,292.25 -32.625,-18.834 c 1.042,-5.666 1.75,-11.458 1.75,-17.416 0,-5.979 -0.708,-11.792 -1.792,-17.458 l 32.625,-18.854 c 15.333,-8.875 20.542,-28.438 11.729,-43.688 -8.854,-15.312 -28.375,-20.562 -43.688,-11.75 l -32.938,19.021 c -8.812,-7.5 -18.854,-13.417 -29.938,-17.354 V 128 c 0,-17.667 -14.312,-32 -32,-32 -17.666,0 -32,14.333 -32,32 v 37.896 c -11.083,3.938 -21.125,9.855 -29.937,17.354 l -32.876,-18.979 c -15.312,-8.833 -34.896,-3.604 -43.749,11.708 -8.813,15.292 -3.562,34.854 11.749,43.688 l 32.563,18.813 c -1.062,5.688 -1.751,11.521 -1.751,17.521 0,5.958 0.688,11.771 1.751,17.438 l -32.584,18.812 c -15.334,8.834 -20.584,28.438 -11.729,43.75 8.811,15.25 28.395,20.5 43.729,11.688 l 32.833,-18.979 c 8.813,7.5 18.875,13.458 30,17.417 V 384 c 0,17.688 14.334,32 32,32 17.688,0 32,-14.312 32,-32 v -37.917 c 11.125,-3.958 21.188,-9.875 29.958,-17.395 l 32.917,18.999 c 15.312,8.812 34.876,3.562 43.688,-11.688 8.857,-15.311 3.628,-34.874 -11.685,-43.749 z M 223.997,256 c 0,-17.667 14.312,-32 32,-32 17.667,0 32,14.333 32,32 0,17.666 -14.333,32 -32,32 -17.687,0 -32,-14.334 -32,-32 z"
   id="path70"
   style="opacity:0.8;fill:#ffffff;fill-opacity:1" />
</svg>