<?xml version="1.0" encoding="UTF-8" standalone="no"?>
<!-- Created with Inkscape (http://www.inkscape.org/) -->

<svg
   xmlns:svg="http://www.w3.org/2000/svg"
   xmlns="http://www.w3.org/2000/svg"
   version="1.1"
   width="512"
   height="512"
   viewBox="0 0 512 512"
   id="Layer_1"
   xml:space="preserve"><defs
   id="defs74" />

<path
   d="m 512,240.001 c 0,-49.167 -40,-89.146 -89.167,-89.146 -2.396,0 -4.771,0.104 -7.146,0.291 -23.125,-28.854 -57.979,-45.978 -95.688,-45.978 -37.688,0 -72.562,17.124 -95.688,45.979 -2.375,-0.188 -4.771,-0.291 -7.188,-0.291 C 168,150.855 128,190.834 128,240.001 c 0,5.146 0.688,10.104 1.5,15.042 -0.542,0.708 -1.188,1.354 -1.708,2.083 -5.229,-0.75 -10.479,-1.125 -15.792,-1.125 C 50.25,256.001 0,306.25 0,368 c 0,61.751 50.25,112 112,112 13.688,0 27.084,-2.5 39.709,-7.333 C 180.666,497.917 217.5,512 256,512 294.542,512 331.333,497.917 360.291,472.667 372.916,477.5 386.312,480 400,480 c 61.75,0 112,-50.249 112,-112 0,-25.688 -9.042,-49.083 -23.666,-67.999 14.582,-15.896 23.666,-36.833 23.666,-60 z M 400,448 c -17.125,0 -32.916,-5.499 -45.938,-14.666 C 330.583,461.625 295.624,480 256,480 216.375,480 181.416,461.625 157.938,433.334 144.938,442.501 129.126,448 112,448 67.812,448 32,412.188 32,368 c 0,-44.188 35.812,-79.999 80,-79.999 10.812,0 21.062,2.188 30.438,6.062 0.562,-1.062 1.25,-2 1.812,-3.021 C 149.875,280.771 156.812,271.354 164.916,263 188,239.084 220.083,224 256,224 c 49.709,0 92.334,28.666 113.541,70.062 5.646,-2.312 11.668,-3.813 17.875,-4.812 L 400,288 c 12.334,0 23.875,3.042 34.312,8 11.312,5.416 21.021,13.374 28.646,23.188 10.5,13.521 17.042,30.354 17.042,48.812 0,44.188 -35.812,80 -80,80 z m 65.562,-170.375 c -18.479,-13.458 -41,-21.624 -65.562,-21.624 -5.312,0 -10.562,0.375 -15.792,1.125 C 354.334,216.418 307.187,192.001 256,192.001 c -34.125,0 -66.312,11.042 -92.938,30.334 7.479,-22.854 28.729,-39.479 54.062,-39.479 7.75,0 15.062,1.562 21.75,4.332 15.188,-29.562 45.625,-50.02 81.125,-50.02 35.5,0 65.958,20.457 81.084,50.02 6.729,-2.77 14.083,-4.332 21.749,-4.332 31.584,0 57.167,25.583 57.167,57.146 10e-4,14.478 -5.561,27.54 -14.437,37.623 z"
   id="path70"
   style="opacity:0.8;fill:#ffffff;fill-opacity:1" />
</svg>